<svg width="20" height="20" viewBox="0 0 20 20" fill="none" xmlns="http://www.w3.org/2000/svg">
<path d="M16.2745 5.97655H9.05882L7.62353 4.27067C7.57525 4.21263 7.50289 4.18008 7.42745 4.18243H1.60588C0.717059 4.1889 0 4.91125 0 5.80008V16.2922C0.00107843 17.1841 0.723823 17.9068 1.61569 17.9079H16.2745C17.1664 17.9068 17.8891 17.1841 17.8902 16.2922V7.59223C17.8891 6.70037 17.1664 5.97763 16.2745 5.97655Z" fill="white"/>
<path d="M18.3941 3.88634H11.1764L9.74115 2.18046C9.69287 2.12242 9.62052 2.08987 9.54508 2.09222H3.72548C2.91901 2.09354 2.23705 2.68933 2.12744 3.4883H7.43527C7.71361 3.48761 7.97787 3.61046 8.15684 3.82359L9.38233 5.28046H16.2745C17.5492 5.28261 18.5821 6.31551 18.5843 7.59026V15.802C19.3925 15.7012 19.9993 15.0146 20 14.2001V5.50006C19.9979 4.61276 19.2813 3.89281 18.3941 3.88634Z" fill="#F2F2F2"/>
</svg>
