<svg width="20" height="20" viewBox="0 0 20 20" fill="none" xmlns="http://www.w3.org/2000/svg">
<g clip-path="url(#clip0)">
<path d="M15.4167 9.58337C14.0417 9.58337 12.9167 10.7084 12.9167 12.0834C12.9167 13.4584 14.0417 14.5834 15.4167 14.5834C16.7917 14.5834 17.9167 13.4584 17.9167 12.0834C17.9167 10.7084 16.7917 9.58337 15.4167 9.58337Z" fill="white"/>
<path d="M17.7082 15.8333H13.1249C11.8583 15.8333 10.8333 16.8583 10.8333 18.125V19.375C10.8333 19.7166 11.1166 20 11.4583 20H19.3749C19.7166 20 19.9999 19.7166 19.9999 19.375V18.125C19.9999 16.8583 18.9749 15.8333 17.7082 15.8333Z" fill="white"/>
<path d="M3.33341 12.5C2.41675 12.5 1.66675 13.25 1.66675 14.1667C1.66675 15.0833 2.41675 15.8333 3.33341 15.8333C4.25008 15.8333 5.00008 15.0833 5.00008 14.1667C5.00008 13.25 4.25008 12.5 3.33341 12.5Z" fill="white"/>
<path d="M4.375 16.6667H2.29167C1.025 16.6667 0 17.6917 0 18.9584V19.375C0 19.7167 0.283333 20 0.625 20H6.04167C6.38333 20 6.66667 19.7167 6.66667 19.375V18.9584C6.66667 17.6917 5.64167 16.6667 4.375 16.6667Z" fill="white"/>
</g>
<defs>
<clipPath id="clip0">
<rect width="20" height="20" fill="white"/>
</clipPath>
</defs>
</svg>
