<svg width="20" height="20" viewBox="0 0 20 20" fill="none" xmlns="http://www.w3.org/2000/svg">
<g clip-path="url(#clip0)">
<path d="M3.28109 16.0503C3.87308 15.4583 4.0173 15.0451 4.18425 14.5666C4.37148 14.03 4.5837 13.4219 5.36515 12.6404C6.14663 11.8589 6.75476 11.6467 7.29132 11.4595C7.64179 11.3372 7.95737 11.2269 8.33374 10.9441C7.53468 10.2142 6.4303 9.90189 5.20472 10.0642C3.9787 10.2265 2.76902 10.8503 1.79851 11.8208C0.827961 12.7913 0.204133 14.001 0.0418676 15.227C-0.0766871 16.1227 0.0583129 16.9536 0.424289 17.6481C0.951086 17.2487 1.39445 17.094 1.79741 16.9534C2.27589 16.7865 2.68909 16.6423 3.28109 16.0503V16.0503Z" fill="white"/>
<path d="M7.67744 12.566C7.199 12.7329 6.7858 12.8771 6.19385 13.4691C5.60189 14.0611 5.45768 14.4743 5.29072 14.9528C5.1035 15.4893 4.89127 16.0975 4.10979 16.879C3.3283 17.6605 2.72014 17.8727 2.18354 18.06C1.83307 18.1823 1.51752 18.2926 1.14111 18.5754C1.80213 19.1791 2.67178 19.4973 3.64639 19.4973C3.85002 19.4973 4.05826 19.4834 4.27006 19.4553C5.49607 19.2931 6.70576 18.6692 7.67627 17.6987C8.64682 16.7282 9.27064 15.5185 9.43291 14.2925C9.55146 13.3968 9.41646 12.5659 9.05049 11.8714C8.52369 12.2707 8.08037 12.4254 7.67744 12.566V12.566Z" fill="white"/>
<path d="M13.8062 16.0503C14.3982 15.4583 14.5424 15.0451 14.7094 14.5666C14.8966 14.03 15.1088 13.4219 15.8903 12.6404C16.6718 11.8589 17.2799 11.6467 17.8165 11.4595C18.1669 11.3372 18.4825 11.2269 18.8589 10.9441C18.0598 10.2142 16.9555 9.90189 15.7299 10.0642C14.5038 10.2265 13.2942 10.8503 12.3237 11.8208C11.3531 12.7913 10.7293 14.001 10.567 15.227C10.4485 16.1227 10.5835 16.9536 10.9494 17.6481C11.4762 17.2487 11.9196 17.094 12.3226 16.9534C12.801 16.7865 13.2142 16.6423 13.8062 16.0503V16.0503Z" fill="white"/>
<path d="M18.2026 12.566C17.7241 12.7329 17.3109 12.8771 16.719 13.4691C16.127 14.0611 15.9828 14.4743 15.8159 14.9528C15.6286 15.4893 15.4164 16.0975 14.6349 16.879C13.8534 17.6605 13.2453 17.8727 12.7087 18.06C12.3582 18.1823 12.0427 18.2926 11.6663 18.5754C12.3273 19.1791 13.1969 19.4973 14.1715 19.4973C14.3752 19.4973 14.5834 19.4834 14.7952 19.4553C16.0212 19.2931 17.2309 18.6692 18.2014 17.6987C19.172 16.7282 19.7958 15.5185 19.9581 14.2925C20.0766 13.3968 19.9416 12.5659 19.5756 11.8714C19.0489 12.2707 18.6055 12.4254 18.2026 12.566V12.566Z" fill="white"/>
<path d="M10.533 6.53073C11.125 5.93874 11.2692 5.5255 11.4362 5.04702C11.6234 4.51046 11.8356 3.9023 12.6171 3.12081C13.3986 2.33933 14.0067 2.1271 14.5433 1.93991C14.8937 1.81761 15.2093 1.70733 15.5857 1.42448C14.7866 0.694639 13.6822 0.382296 12.4567 0.5446C11.2306 0.706866 10.021 1.33073 9.05046 2.30124C8.07991 3.27175 7.45609 4.48144 7.29382 5.70745C7.17527 6.60316 7.31027 7.43405 7.67624 8.12851C8.20304 7.72917 8.6464 7.57444 9.04936 7.43382C9.52784 7.26691 9.94104 7.12273 10.533 6.53073V6.53073Z" fill="white"/>
<path d="M14.9294 3.04642C14.451 3.21333 14.0378 3.35751 13.4458 3.9495C12.8538 4.54149 12.7096 4.9547 12.5427 5.43317C12.3554 5.96974 12.1432 6.5779 11.3617 7.35942C10.5803 8.14091 9.97209 8.35313 9.43549 8.54036C9.08502 8.66267 8.76947 8.77298 8.39307 9.05579C9.05408 9.6595 9.92373 9.97767 10.8983 9.97767C11.102 9.97767 11.3102 9.9638 11.522 9.93575C12.748 9.77349 13.9577 9.14962 14.9282 8.17911C15.8988 7.2086 16.5226 5.99892 16.6849 4.7729C16.8034 3.87716 16.6684 3.04626 16.3024 2.35181C15.7757 2.7511 15.3323 2.90583 14.9294 3.04642V3.04642Z" fill="white"/>
</g>
<defs>
<clipPath id="clip0">
<rect width="20" height="20" fill="white"/>
</clipPath>
</defs>
</svg>
