<svg width="20" height="20" viewBox="0 0 20 20" fill="none" xmlns="http://www.w3.org/2000/svg">
<path d="M0.696537 6.04464C1.0813 6.04464 1.39307 5.73278 1.39307 5.34811V2.37826L5.87924 6.86349C6.0153 6.99946 6.19352 7.06744 6.37174 7.06744C6.55005 7.06744 6.72836 6.99946 6.86433 6.8634C7.13635 6.59138 7.13635 6.15033 6.86424 5.8784L2.37789 1.39307H5.34838C5.73306 1.39307 6.04492 1.08121 6.04492 0.696537C6.04492 0.311863 5.73315 0 5.34838 0H0.696537C0.31177 0 0 0.311863 0 0.696537V5.3482C0 5.73278 0.31177 6.04464 0.696537 6.04464Z" fill="white"/>
<path d="M19.3034 13.9549C18.9186 13.9549 18.6068 14.2668 18.6068 14.6514V17.6214L13.9826 12.9971C13.7104 12.7251 13.2695 12.7251 12.9975 12.9971C12.7255 13.2691 12.7255 13.7102 12.9975 13.9821L17.6216 18.6063H14.6519C14.2671 18.6063 13.9554 18.9181 13.9554 19.3028C13.9554 19.6875 14.2671 19.9993 14.6519 19.9993H19.3035C19.6882 19.9993 20 19.6875 20 19.3028V14.6514C19.9999 14.2668 19.688 13.9549 19.3034 13.9549Z" fill="white"/>
<path d="M6.01736 12.9971L1.39356 17.6213V14.6514C1.39356 14.2668 1.08179 13.9549 0.697025 13.9549C0.312258 13.9549 0.000488281 14.2668 0.000488281 14.6514V19.303C0.000488281 19.6877 0.312258 19.9995 0.697025 19.9995H5.34841C5.73308 19.9995 6.04495 19.6877 6.04495 19.303C6.04495 18.9183 5.73318 18.6065 5.34841 18.6065H2.37856L7.00245 13.9821C7.27447 13.7101 7.27447 13.269 7.00236 12.997C6.73052 12.7251 6.28948 12.7251 6.01736 12.9971Z" fill="white"/>
<path d="M19.3034 0H14.6518C14.2671 0 13.9553 0.311863 13.9553 0.696537C13.9553 1.08121 14.2671 1.39307 14.6518 1.39307H17.6218L13.1363 5.87887C12.8642 6.15089 12.8642 6.59194 13.1363 6.86396C13.2723 6.99992 13.4506 7.0679 13.6288 7.0679C13.8071 7.0679 13.9854 6.99983 14.1214 6.86386L18.607 2.37807V5.34811C18.607 5.73278 18.9187 6.04464 19.3035 6.04464C19.6883 6.04464 20 5.73278 20 5.34811V0.696537C19.9999 0.31177 19.6881 0 19.3034 0Z" fill="white"/>
</svg>
