<svg width="20" height="20" viewBox="0 0 20 20" fill="none" xmlns="http://www.w3.org/2000/svg">
<g clip-path="url(#clip0)">
<path d="M11.6227 0.732372C11.3907 0.621705 11.1173 0.651038 10.9173 0.812372L4.432 6.00037H1.33333C0.598667 6.00037 0 6.59904 0 7.3337V12.667C0 13.403 0.598667 14.0004 1.33333 14.0004H4.432L10.916 19.1884C11.0373 19.2844 11.1853 19.3337 11.3333 19.3337C11.432 19.3337 11.5307 19.311 11.6227 19.267C11.8533 19.1564 12 18.923 12 18.667V1.33371C12 1.07771 11.8533 0.844372 11.6227 0.732372Z" fill="white"/>
<path d="M15.3748 5.28572C15.1121 5.02705 14.6908 5.03105 14.4321 5.29105C14.1734 5.55372 14.1761 5.97505 14.4374 6.23505C15.4454 7.22972 16.0001 8.56705 16.0001 10.0004C16.0001 11.4337 15.4454 12.7711 14.4374 13.7657C14.1761 14.0231 14.1734 14.4457 14.4321 14.7084C14.5628 14.8404 14.7348 14.9057 14.9054 14.9057C15.0748 14.9057 15.2441 14.8417 15.3748 14.7124C16.6388 13.4684 17.3334 11.7937 17.3334 10.0004C17.3334 8.20705 16.6388 6.53239 15.3748 5.28572Z" fill="white"/>
<path d="M17.256 3.40701C16.9933 3.14701 16.572 3.14968 16.312 3.41101C16.0533 3.67234 16.056 4.09501 16.316 4.35368C17.832 5.85634 18.6667 7.86168 18.6667 10.0003C18.6667 12.139 17.832 14.143 16.316 15.6457C16.056 15.9057 16.0533 16.3283 16.312 16.5897C16.444 16.7203 16.6147 16.7857 16.7853 16.7857C16.9547 16.7857 17.1253 16.7217 17.256 16.5923C19.0267 14.839 20 12.4977 20 10.0003C20 7.50301 19.0267 5.16168 17.256 3.40701Z" fill="white"/>
</g>
<defs>
<clipPath id="clip0">
<rect width="20" height="20" fill="white"/>
</clipPath>
</defs>
</svg>
